<?xml version="1.0" encoding="UTF-8"?>
<svg id="Layer_1" xmlns="http://www.w3.org/2000/svg" version="1.1" viewBox="0 0 9062.59 4000">
  <!-- Generator: Adobe Illustrator 29.2.1, SVG Export Plug-In . SVG Version: 2.1.0 Build 116)  -->
  <defs>
    <style>
      .st0 {
        font-size: 856.62px;
      }

      .st0, .st1 {
        font-family: Montserrat-Bold, Montserrat;
        font-weight: 700;
      }

      .st0, .st2 {
        fill: #474a4f;
      }

      .st1 {
        fill: #4d4d4d;
        font-size: 330.9px;
      }

      .st3 {
        fill: #ccc;
      }

      .st3, .st2, .st4 {
        fill-rule: evenodd;
      }

      .st4 {
        fill: #ff0;
      }
    </style>
  </defs>
  <path class="st4" d="M1603.47,3365.98h-515.15c-34.49,0-62.86-28.37-62.86-62.86v-144.12c0-34.49,28.37-62.86,62.86-62.86h515.15c34.49,0,62.85,28.36,62.85,62.86v144.12c0,34.49-28.36,62.86-62.85,62.86h0ZM3194.14,2153.25v160.23l180.91,104.24v948.26h-103.5v-888.47l-623.97-360.28-624,360.28v888.47h-204.68c-35.25,0-63.62-28.37-63.62-62.86v-144.12c0-34.49,28.36-62.86,63.62-62.86h101.18v-96.6h-422.4c-34.49,0-62.86-28.37-62.86-62.86v-143.35c0-34.49,28.36-62.86,62.86-62.86h422.4v-96.58h-101.18c-35.25,0-63.62-28.36-63.62-63.62v-143.36c0-34.52,28.36-62.88,63.62-62.88h194.72l182.43-105.77c-18.41-10.75-30.66-30.69-30.66-53.66v-144.12c0-34.52,28.36-62.88,62.85-62.88h419.33l393.27,226.91v-71.28h153.31ZM1283.04,2999.55h-482.95l263.7-269.06h219.25c34.49,0,62.86,28.36,62.86,62.86v143.35c0,34.49-28.36,62.86-62.86,62.86h0ZM1603.47,2633.91h-445.37l262.93-269.85h182.44c34.49,0,62.85,28.36,62.85,62.88v143.36c0,35.25-28.36,63.62-62.85,63.62h0ZM2012.81,2267.47h-497.5l205.44-210.8c18.41-19.17,32.98-39.11,44.47-59.05h247.59c35.28,0,63.65,28.36,63.65,62.88v144.12c0,34.49-28.37,62.85-63.65,62.85h0ZM873.69,3365.98h-430.82l263.7-269.83h167.12c34.49,0,62.85,28.36,62.85,62.86v144.12c0,34.49-28.36,62.86-62.85,62.86h0Z"/>
  <path class="st2" d="M1601.17,2019.86L343.97,3308.48c-16.85,17.64-42.92,21.47-65.15,9.98-21.47-11.51-32.96-35.28-27.6-59.05l281.34-1387.5c10.72-51.34,54.43-87.39,106.54-87.39h371.05c4.59-9.96,8.42-17.62,9.96-22.24,8.42-18.38,6.89-37.56-3.83-53.64-86.63-128.8-141.82-210.83-165.59-246.85-8.43-13.02-8.43-28.37,0-41.39,14.55-22.24,29.13-44.47,43.68-66.71,9.98-16.11,11.51-35.25,3.85-52.9-14.58-32.19-15.34-77.4,3.83-108.1l361.05-545.78c11.51-17.64,28.36-29.16,49.07-33.76,20.7-4.59,40.61,0,58.26,11.52l151.77,101.94c19.17,13.05,30.66,31.42,33.73,54.43,3.09,22.24-3.83,42.92-19.14,60.56l-436.18,489.08c-31.45,35.25-46.01,41.41-79.73,43.71-17.64,1.53-32.2,9.96-41.42,25.3l-23.76,37.55,157.16,223.08c35.25,50.58,37.55,65.92,10.72,124.18l-411.64,806.44,529.72-806.44h262.17c134.92,0,200.84,129.54,97.34,235.33h0Z"/>
  <polygon class="st3" points="2647.57 2200.79 2114.78 2508.17 2647.57 2281.26 3180.32 2508.17 2647.57 2200.79"/>
  <path class="st4" d="M2492.7,2640.03h124.94v124.94h-124.94v-124.94ZM2678.23,2640.03h124.94v124.94h-124.94v-124.94ZM2803.17,2825.56v124.94h-124.94v-124.94h124.94ZM2617.65,2950.5h-124.94v-124.94h124.94v124.94Z"/>
  <text class="st0" transform="translate(3733.22 2985.96)"><tspan x="0" y="0">KIPEDREIRO</tspan></text>
  <text class="st1" transform="translate(3810.21 3392.05)"><tspan x="0" y="0">SUA OBRA NO RITMO CERTO</tspan></text>
</svg>